<svg width="15" height="15" viewBox="0 0 15 15" fill="none" xmlns="http://www.w3.org/2000/svg">
<path d="M5.63159 10.9869H6.13159V10.4869H5.63159V10.9869ZM5.63159 13.7763H5.13159V14.6505L5.8851 14.2072L5.63159 13.7763ZM11.0443 10.5923L10.8469 10.133L10.8179 10.1454L10.7908 10.1614L11.0443 10.5923ZM1.25 6.10535C1.25 3.68547 3.2117 1.72377 5.63158 1.72377V0.72377C2.65941 0.72377 0.25 3.13319 0.25 6.10535H1.25ZM5.63158 10.4869C3.2117 10.4869 1.25 8.52523 1.25 6.10535H0.25C0.25 9.07751 2.65941 11.4869 5.63158 11.4869V10.4869ZM5.63159 10.4869H5.63158V11.4869H5.63159V10.4869ZM6.13159 13.7763V10.9869H5.13159V13.7763H6.13159ZM10.7908 10.1614L5.37808 13.3453L5.8851 14.2072L11.2978 11.0233L10.7908 10.1614ZM13.5 6.10535C13.5 7.91057 12.4082 9.46192 10.8469 10.133L11.2417 11.0517C13.1571 10.2285 14.5 8.32431 14.5 6.10535H13.5ZM9.11842 1.72377C11.5383 1.72377 13.5 3.68547 13.5 6.10535H14.5C14.5 3.13319 12.0906 0.72377 9.11842 0.72377V1.72377ZM5.63158 1.72377H9.11842V0.72377H5.63158V1.72377Z" fill="#858991"/>
</svg>
